HIERARCHY
ROOT Hips
{
     OFFSET 39.01620 94.05090 3.22090
     CHANNELS 6 Xposition Yposition Zposition Zrotation Xrotation Yrotation
     JOINT Spine
     {
          OFFSET 0.00000 11.89050 0.00000
          CHANNELS 3 Zrotation Xrotation Yrotation
          JOINT Spine1
          {
               OFFSET 0.00000 25.65740 0.12766
               CHANNELS 3 Zrotation Xrotation Yrotation
               JOINT HEad
               {
                    OFFSET -0.00000 8.73416 0.01134
                    CHANNELS 3 Zrotation Xrotation Yrotation
                    End Site
                    {
                         OFFSET -0.29000 12.77420 2.51395
                    }
               }
               JOINT LeftShoulder1
               {
                    OFFSET 8.99000 -0.36225 -0.22000
                    CHANNELS 3 Zrotation Xrotation Yrotation
                    JOINT LeftArm
                    {
                         OFFSET 10.28270 -0.00338 0.32212
                         CHANNELS 3 Zrotation Xrotation Yrotation
                         JOINT LeftForeArm
                         {
                              OFFSET 32.76690 0.09914 -1.42434
                              CHANNELS 3 Zrotation Xrotation Yrotation
                              JOINT LeftHand
                              {
                                   OFFSET 27.56430 0.08536 1.02216
                                   CHANNELS 3 Zrotation Xrotation Yrotation
                                   End Site
                                   {
                                        OFFSET 16.74430 -0.60000 1.50291
                                   }
                              }
                         }
                    }
               }
               JOINT RightShoulder
               {
                    OFFSET -8.99000 -0.36225 -0.22000
                    CHANNELS 3 Zrotation Xrotation Yrotation
                    JOINT RightArm
                    {
                         OFFSET -10.28270 -0.00338 0.32212
                         CHANNELS 3 Zrotation Xrotation Yrotation
                         JOINT RightForeArm
                         {
                              OFFSET -32.89710 0.09914 -1.42434
                              CHANNELS 3 Zrotation Xrotation Yrotation
                              JOINT RightHand
                              {
                                   OFFSET -27.49210 0.08536 1.02216
                                   CHANNELS 3 Zrotation Xrotation Yrotation
                                   End Site
                                   {
                                        OFFSET -16.63120 -0.60000 1.50291
                                   }
                              }
                         }
                    }
               }
          }
     }
     JOINT LeftUpLeg
     {
          OFFSET 8.94580 -8.66707 0.10165
          CHANNELS 3 Zrotation Xrotation Yrotation
          JOINT LeftLeg
          {
               OFFSET -0.00000 -44.42270 1.37270
               CHANNELS 3 Zrotation Xrotation Yrotation
               JOINT LeftFoot
               {
                    OFFSET -0.25355 -42.09240 -1.46059
                    CHANNELS 3 Zrotation Xrotation Yrotation
                    JOINT LeftToes
                    {
                         OFFSET -0.04000 -4.41509 8.49910
                         CHANNELS 3 Zrotation Xrotation Yrotation
                         End Site
                         {
                              OFFSET 0.08000 -0.04745 9.77979
                         }
                    }
               }
          }
     }
     JOINT RightUpLeg
     {
          OFFSET -8.94580 -8.66707 0.10165
          CHANNELS 3 Zrotation Xrotation Yrotation
          JOINT RightLeg
          {
               OFFSET -0.00000 -44.42270 1.37270
               CHANNELS 3 Zrotation Xrotation Yrotation
               JOINT RightFoot
               {
                    OFFSET 0.25355 -42.09240 -1.46059
                    CHANNELS 3 Zrotation Xrotation Yrotation
                    JOINT RightToes
                    {
                         OFFSET 0.04000 -4.41509 8.49910
                         CHANNELS 3 Zrotation Xrotation Yrotation
                         End Site
                         {
                              OFFSET -0.08000 -0.13745 9.77979
                         }
                    }
               }
          }
     }
}
MOTION
Frames: 21
Frame Time: 0.01667
8.88066 95.31240 -19.93220 -9.10317 -11.85650 -43.12730 -5.65775 12.15260 0.39463 -2.29919 23.73630 -0.69325 9.09426 -20.91250 26.67430 -0.00000 0.00000 -0.00000 -102.68700 -66.76170 -84.20810 -37.89960 44.05340 -74.60610 13.45670 8.66832 -6.80397 12.06350 0.61497 1.37960 82.58070 -0.57914 76.18210 9.92636 28.49820 91.78960 20.45530 11.46580 4.18002 25.16580 -9.41945 -17.45030 -35.55910 13.34300 83.60960 -5.26784 9.93175 0.73069 11.48370 -0.15944 -57.77920 -28.33150 14.52540 16.18600 38.78520 1.20713 -30.87400 -32.01220 -0.22881 2.01602 0.04620 0.00053 0.66264 
9.07679 95.24210 -19.14780 -8.97970 -11.74480 -43.34810 -5.61736 12.09590 0.38827 -2.24244 23.60660 -0.70437 8.58746 -20.89450 26.78600 -0.00000 0.00000 -0.00000 -100.20300 -66.82290 -81.58810 -38.10740 43.11300 -74.60850 12.86740 8.73863 -6.68180 11.99050 0.61356 1.38405 82.10600 -0.80701 75.67670 8.65963 28.12820 91.53510 20.03600 11.44820 4.25806 25.22740 -9.66339 -17.11590 -35.45910 13.28850 83.23080 -5.36975 9.99152 0.74872 11.47330 -0.27102 -57.88010 -28.88210 14.58110 16.54570 38.68200 1.02789 -30.39440 -31.47190 -0.27226 1.96547 0.04620 0.00053 0.66264 
9.27925 95.16370 -18.33210 -8.83793 -11.61300 -43.55830 -5.58099 12.02350 0.37753 -2.18132 23.44410 -0.72611 8.04681 -20.82470 26.86400 -0.00000 0.00000 -0.00000 -98.20770 -66.97210 -79.35960 -38.36520 42.39990 -74.58750 12.39180 8.79424 -6.58489 11.93130 0.61593 1.41125 81.60820 -1.02906 75.09610 7.36607 27.73100 91.12940 19.56360 11.43290 4.37438 25.32660 -9.95396 -16.76730 -35.34540 13.24670 82.85030 -5.51796 10.02550 0.77292 11.46960 -0.28284 -57.87830 -29.44210 14.62440 16.90880 38.57060 0.82729 -29.94430 -30.93200 -0.31150 1.91667 0.04620 0.00053 0.66264 
9.49495 95.07430 -17.46080 -8.67600 -11.44340 -43.75060 -5.53447 11.92470 0.35976 -2.10868 23.22730 -0.75755 7.48347 -20.67950 26.90250 -0.00000 0.00000 -0.00000 -96.92570 -67.28110 -77.71500 -38.67380 42.01540 -74.53620 12.09000 8.82784 -6.53577 11.90130 0.62414 1.47230 81.06580 -1.24692 74.38710 6.05256 27.27140 90.45530 18.99690 11.42320 4.57198 25.49580 -10.31260 -16.39780 -35.19900 13.20990 82.47500 -5.74213 10.00640 0.80661 11.48410 -0.10446 -57.70710 -30.00690 14.65430 17.27760 38.44650 0.59318 -29.53970 -30.39740 -0.34340 1.87078 0.04620 0.00053 0.66264 
9.72826 94.96940 -16.52050 -8.50687 -11.22700 -43.92050 -5.45480 11.79690 0.33709 -2.01625 22.95310 -0.78614 6.95238 -20.47280 26.92220 -0.00000 0.00000 -0.00000 -96.35050 -67.72440 -76.67820 -39.00300 41.92830 -74.47060 11.95620 8.84121 -6.52861 11.91040 0.63782 1.56258 80.44960 -1.45665 73.52500 4.77037 26.72500 89.42430 18.28900 11.41790 4.87612 25.75450 -10.73910 -16.00880 -35.00010 13.16580 82.11250 -6.06993 9.89247 0.85174 11.53680 0.37670 -57.32240 -30.56680 14.68150 17.65450 38.31110 0.32203 -29.18040 -29.86830 -0.38002 1.82438 0.04620 0.00053 0.66264 
9.98161 94.84360 -15.50510 -8.35313 -10.96310 -44.06100 -5.31152 11.64420 0.31173 -1.89593 22.63310 -0.79734 6.51532 -20.24180 26.94730 -0.00000 0.00000 -0.00000 -96.38050 -68.22260 -76.21270 -39.32180 42.04630 -74.40990 11.94960 8.84043 -6.54301 11.95990 0.65476 1.66629 79.72790 -1.64381 72.51390 3.58075 26.07200 87.97900 17.38790 11.41200 5.30171 26.11010 -11.21960 -15.61840 -34.73290 13.09660 81.78170 -6.53071 9.62207 0.90854 11.65380 1.30132 -56.69700 -31.10870 14.72660 18.03800 38.17040 0.02124 -28.85200 -29.33510 -0.45113 1.76894 0.04620 0.00053 0.66264 
10.25630 94.68980 -14.41280 -8.24058 -10.65600 -44.15930 -5.07341 11.47390 0.28234 -1.74176 22.28620 -0.78427 6.20881 -20.02910 26.98930 -0.00000 0.00000 -0.00000 -96.95260 -68.71030 -76.32230 -39.62540 42.30550 -74.35630 12.03010 8.83105 -6.56077 12.04840 0.67291 1.76919 78.86680 -1.78617 71.38160 2.51817 25.29490 86.07800 16.25990 11.40000 5.86654 26.56330 -11.73900 -15.25930 -34.39300 12.98360 81.52920 -7.15545 9.12175 0.97466 11.85700 2.81958 -55.81580 -31.62050 14.81550 18.42320 38.03260 -0.29278 -28.53560 -28.77670 -0.59449 1.69364 0.04620 0.00053 0.66264 
10.55300 94.49920 -13.24380 -8.19432 -10.31180 -44.19920 -4.71671 11.29240 0.24385 -1.55059 21.93050 -0.75079 6.03475 -19.86940 27.04580 -0.00000 0.00000 -0.00000 -98.12340 -69.17870 -77.11060 -39.95470 42.71850 -74.28100 12.17470 8.81595 -6.57452 12.17560 0.69266 1.87315 77.82850 -1.86132 70.17570 1.57118 24.37540 83.67030 14.93710 11.38180 6.60048 27.11450 -12.28910 -14.96520 -33.98970 12.81940 81.44350 -7.97053 8.33113 1.04418 12.14690 5.04603 -54.66910 -32.09090 14.97400 18.80400 37.90620 -0.60019 -28.22320 -28.16640 -0.83569 1.59143 0.04620 0.00053 0.66264 
10.87120 94.26170 -11.99920 -8.23789 -9.93495 -44.16630 -4.23120 11.10350 0.19068 -1.32007 21.57770 -0.70714 5.96793 -19.77860 27.10460 -0.00000 0.00000 -0.00000 -100.06600 -69.66780 -78.77350 -40.40420 43.36110 -74.12290 12.38070 8.79435 -6.59411 12.33450 0.71772 2.00345 76.56990 -1.84967 68.95950 0.67830 23.29210 80.67670 13.56220 11.36700 7.53690 27.76950 -12.87390 -14.75030 -33.54500 12.62270 81.65260 -8.99062 7.23566 1.10793 12.48720 8.00819 -53.24070 -32.50720 15.22430 19.17310 37.79670 -0.88439 -27.92550 -27.48840 -1.16864 1.46489 0.04620 0.00053 0.66264 
11.29390 93.71630 -10.43590 -8.93451 -9.06939 -44.13780 -1.96437 10.71510 -0.05292 -0.70595 21.14480 -0.66003 5.97201 -19.74940 27.14440 -0.00000 0.00000 -0.00000 -102.99600 -70.22100 -81.52900 -41.12090 44.31870 -73.79190 12.67070 8.76002 -6.65810 12.49320 0.75385 2.20331 75.05020 -1.72993 67.80810 -0.26342 22.02750 77.00530 12.39830 11.37590 8.66804 29.03750 -14.47890 -14.33420 -33.43010 14.59600 82.48070 -11.30570 5.51445 1.25153 12.80020 11.63110 -51.49180 -32.30280 15.75800 19.38130 37.71170 -1.14278 -27.39350 -26.67490 -1.51463 1.33170 0.04620 0.00053 0.66264 
11.75700 92.94740 -8.63287 -9.88069 -8.22722 -44.07250 0.76977 10.26010 -0.32263 -0.14366 20.71080 -0.60644 6.02006 -19.75900 27.13850 -0.00000 0.00000 -0.00000 -107.01500 -70.83480 -85.47370 -42.27380 45.62180 -73.18700 13.10390 8.69798 -6.84726 12.58570 0.80594 2.51860 73.24650 -1.47846 66.80360 -1.36802 20.60280 72.61860 11.78880 11.43660 9.85698 30.37390 -16.45550 -13.84470 -33.56980 17.61730 84.00660 -14.33450 3.45717 1.35881 12.97640 15.78720 -49.34240 -31.88630 15.89980 19.31480 37.65310 0.14419 -27.18400 -25.38850 -2.53455 1.02230 0.04620 0.00053 0.66264 
12.18320 91.93000 -6.84763 -10.73460 -7.52598 -44.01130 2.86403 9.83881 -0.40117 0.42658 20.28560 -0.52885 6.11425 -19.78760 27.06210 -0.00000 0.00000 -0.00000 -111.86900 -71.44250 -90.33750 -43.96440 47.19480 -72.25210 13.77910 8.58251 -7.28019 12.52300 0.87445 2.97859 71.17820 -1.08621 66.03130 -2.69846 19.13010 67.65040 12.10300 11.57330 10.73030 31.67280 -18.70680 -13.21200 -33.93900 21.05960 86.41930 -17.76980 1.53303 1.41085 12.88460 20.39330 -46.65630 -31.46930 15.34560 18.93530 37.69840 3.03652 -27.41380 -23.83280 -4.16195 0.59427 0.04620 0.00053 0.66264 
12.61530 90.76350 -4.94962 -11.74070 -6.79539 -43.91590 5.03128 9.36952 -0.42927 1.05370 19.83770 -0.40048 6.29012 -19.83390 26.89620 -0.00000 0.00000 -0.00000 -116.61800 -71.96650 -95.16080 -46.06140 48.83310 -71.09430 14.80410 8.38099 -8.06703 12.22360 0.95271 3.57919 68.93160 -0.59435 65.57790 -4.20903 17.83460 62.51520 13.69160 11.77310 10.66150 33.19300 -21.09260 -12.33040 -34.59700 24.82890 89.63720 -21.58540 -0.14258 1.41821 12.36590 25.44910 -43.24830 -31.09810 15.03370 18.57480 37.85200 5.72852 -27.58070 -22.42150 -5.52267 0.26924 0.04620 0.00053 0.66264 
13.04110 89.50600 -2.96450 -12.83570 -6.08073 -43.75720 7.09567 8.86744 -0.38537 1.69566 19.36410 -0.19505 6.60207 -19.91570 26.61740 -0.00000 0.00000 -0.00000 -119.44900 -72.40890 -98.09620 -48.01620 50.23140 -70.13380 16.23180 8.06771 -9.22048 11.64680 1.02688 4.27441 66.66960 -0.12123 65.52800 -5.76782 16.99050 57.90060 16.79330 11.93060 9.03161 34.90670 -23.44400 -11.05650 -35.53730 28.61550 93.50810 -25.63400 -1.41289 1.41511 11.23460 30.88300 -38.98380 -30.85390 15.05170 18.29890 38.08080 7.98788 -27.64770 -21.19370 -6.48166 0.05836 0.04620 0.00053 0.66264 
13.44790 88.26090 -0.95264 -13.91290 -5.45183 -43.47120 8.79366 8.37030 -0.24925 2.28253 18.86880 0.10251 7.09853 -20.05390 26.18010 -0.00000 0.00000 -0.00000 -117.82300 -72.81280 -96.53130 -48.81390 51.04690 -70.14250 17.99130 7.65067 -10.56850 10.81250 1.07965 4.97800 64.61420 0.15428 65.96000 -7.26389 16.79170 54.58450 21.29970 11.83810 5.78775 36.72690 -25.52700 -9.24504 -36.65020 31.96220 97.67280 -29.55560 -2.21007 1.43691 9.42079 36.22910 -34.08280 -30.82280 15.48850 18.19410 38.33210 9.54251 -27.59750 -20.15610 -6.93574 -0.03712 0.04620 0.00053 0.66264 
13.82960 87.16940 0.98069 -14.83760 -4.98436 -42.95330 9.81831 7.93487 -0.01158 2.73072 18.36100 0.49105 7.80631 -20.25510 25.50310 -0.00000 0.00000 -0.00000 -109.01900 -72.84270 -87.61020 -47.24580 50.88860 -71.97690 19.85700 7.20177 -11.74910 9.79905 1.09676 5.57827 63.01500 0.04932 66.94960 -8.66451 17.21680 53.17440 26.55980 11.35690 1.77662 38.49120 -27.07970 -6.80290 -37.68520 34.31500 101.51400 -32.67640 -2.56533 1.49505 7.38217 40.52320 -29.61110 -31.04820 16.38460 18.33160 38.54890 10.17120 -27.47990 -19.29380 -6.82828 -0.02366 0.04620 0.00053 0.66264 
14.19840 86.39410 2.71172 -15.47140 -4.74131 -42.06650 9.89690 7.62334 0.31608 2.96510 17.85220 0.95907 8.72621 -20.50670 24.46800 -0.00000 0.00000 -0.00000 -92.72950 -71.06590 -70.83260 -42.50880 49.13150 -75.97380 21.45580 6.86532 -12.31850 8.71026 1.07211 5.96463 62.13290 -0.56101 68.58550 -9.98444 17.99050 53.93780 31.58590 10.62500 -1.78086 39.91620 -27.84830 -3.79180 -38.27660 35.09780 104.19700 -34.06420 -2.61146 1.54843 6.34569 42.73500 -27.55460 -31.50840 17.68080 18.73690 38.69670 9.81947 -27.45910 -18.59810 -6.14572 0.08819 0.04620 0.00053 0.66264 
14.59480 86.09360 4.18554 -15.68870 -4.77227 -40.67830 8.84603 7.49069 0.71251 2.93540 17.35520 1.50211 9.83689 -20.78920 22.92940 -0.00000 0.00000 -0.00000 -75.49390 -65.22500 -52.55130 -34.88200 44.67570 -81.23980 22.25250 6.82480 -11.90770 7.62605 1.00794 6.05771 62.24430 -1.70529 70.98200 -11.28600 18.76530 56.78500 35.48630 9.95695 -4.14634 40.52730 -27.61230 -0.54989 -38.10350 33.82130 105.01000 -32.90450 -2.55330 1.50953 7.45620 42.18000 -29.63070 -32.20150 19.32420 19.46520 38.73870 8.41363 -27.74460 -18.12540 -4.76897 0.31154 0.04620 0.00053 0.66264 
15.07680 86.32340 5.42307 -15.41280 -5.10203 -38.66550 6.69339 7.54829 1.11428 2.64071 16.87670 2.14227 11.09210 -21.09860 20.72660 -0.00000 0.00000 -0.00000 -64.41210 -54.09460 -39.80510 -25.85150 35.93640 -85.44410 21.46480 7.22223 -10.38340 6.55987 0.91087 5.83021 63.65030 -3.29497 74.27120 -12.72870 19.36840 61.36030 37.63620 9.58042 -5.25503 39.80110 -26.31750 2.30285 -37.14370 30.24040 103.88100 -28.94110 -2.52228 1.32726 10.39500 38.43170 -35.66430 -33.16660 21.31450 20.62850 38.64910 5.82668 -28.55090 -18.05890 -2.43324 0.69697 0.04620 0.00053 0.66264 
15.69500 86.98850 6.57135 -14.67790 -5.72949 -35.98780 3.78088 7.74091 1.46017 2.13464 16.40620 2.93362 12.41230 -21.46350 17.70340 -0.00000 0.00000 -0.00000 -59.72540 -37.90480 -32.96080 -17.05390 21.25790 -85.66060 17.99980 8.02448 -8.11257 5.44723 0.78881 5.31469 66.64910 -5.10135 78.55930 -14.58560 19.84840 67.16550 37.65550 9.51467 -5.44605 37.47960 -24.08960 4.05987 -35.77900 24.55610 101.52500 -22.69670 -2.54103 1.02884 13.42030 31.45230 -43.60100 -34.45110 23.50280 22.29320 38.50100 2.43461 -30.05240 -18.61950 0.99206 1.30581 0.04620 0.00053 0.66264 
16.46660 87.87770 7.84099 -13.67400 -6.61509 -32.75710 0.76837 7.94941 1.76651 1.51171 15.91630 3.94039 13.67570 -21.94450 13.74410 -0.00000 0.00000 -0.00000 -59.08710 -18.23580 -29.83490 -8.64741 0.31165 -79.37730 10.97790 8.95200 -6.32427 4.16439 0.65161 4.60529 71.42970 -6.73747 83.84290 -17.10110 20.31150 73.65500 35.50900 9.58336 -5.30489 33.91310 -21.16580 4.30111 -34.56480 17.52870 98.94670 -15.24790 -2.59296 0.67975 14.96000 22.06590 -51.21780 -36.02140 25.68440 24.42250 38.38770 -1.06924 -32.12580 -20.02860 5.61928 2.25749 0.04620 0.00053 0.66264 
